<mxfile>
    <diagram id="XzcJRW1JfJWsMVxxivHF" name="Page-1">
        <mxGraphModel dx="898" dy="680" grid="1" gridSize="10" guides="1" tooltips="1" connect="1" arrows="1" fold="1" page="1" pageScale="1" pageWidth="827" pageHeight="1169" background="#F1FAEE" math="0" shadow="0">
            <root>
                <mxCell id="0"/>
                <mxCell id="1" parent="0"/>
                <mxCell id="2" value="Table" style="shape=table;html=1;whiteSpace=wrap;startSize=30;container=1;collapsible=0;childLayout=tableLayout;fixedRows=1;rowLines=0;fontStyle=1;align=left;fillColor=#A8DADC;strokeColor=#457B9D;fontColor=#1D3557;strokeWidth=3;perimeterSpacing=1;" vertex="1" parent="1">
                    <mxGeometry x="20" y="20" width="180" height="150" as="geometry"/>
                </mxCell>
                <mxCell id="3" value="" style="shape=partialRectangle;html=1;whiteSpace=wrap;collapsible=0;dropTarget=0;pointerEvents=0;fillColor=none;top=0;left=0;bottom=1;right=0;points=[[0,0.5],[1,0.5]];portConstraint=eastwest;strokeColor=#457B9D;fontColor=#1D3557;" vertex="1" parent="2">
                    <mxGeometry y="30" width="180" height="30" as="geometry"/>
                </mxCell>
                <mxCell id="4" value="1" style="shape=partialRectangle;html=1;whiteSpace=wrap;connectable=0;fillColor=none;top=0;left=0;bottom=0;right=0;overflow=hidden;strokeColor=#457B9D;fontColor=#1D3557;" vertex="1" parent="3">
                    <mxGeometry width="40" height="30" as="geometry"/>
                </mxCell>
                <mxCell id="5" value="Value 1" style="shape=partialRectangle;html=1;whiteSpace=wrap;connectable=0;fillColor=none;top=0;left=0;bottom=0;right=0;align=left;spacingLeft=6;overflow=hidden;strokeColor=#457B9D;fontColor=#1D3557;" vertex="1" parent="3">
                    <mxGeometry x="40" width="140" height="30" as="geometry"/>
                </mxCell>
                <mxCell id="6" value="" style="shape=partialRectangle;html=1;whiteSpace=wrap;collapsible=0;dropTarget=0;pointerEvents=0;fillColor=none;top=0;left=0;bottom=0;right=0;points=[[0,0.5],[1,0.5]];portConstraint=eastwest;strokeColor=#457B9D;fontColor=#1D3557;" vertex="1" parent="2">
                    <mxGeometry y="60" width="180" height="30" as="geometry"/>
                </mxCell>
                <mxCell id="7" value="&lt;table&gt;&lt;tbody&gt;&lt;tr&gt;&lt;td&gt;&lt;br&gt;&lt;/td&gt;&lt;td&gt;&lt;br&gt;&lt;/td&gt;&lt;/tr&gt;&lt;tr&gt;&lt;td&gt;&lt;br&gt;&lt;/td&gt;&lt;td&gt;&lt;br&gt;&lt;/td&gt;&lt;/tr&gt;&lt;tr&gt;&lt;td&gt;&lt;br&gt;&lt;/td&gt;&lt;td&gt;&lt;br&gt;&lt;/td&gt;&lt;/tr&gt;&lt;tr&gt;&lt;td&gt;&lt;br&gt;&lt;/td&gt;&lt;td&gt;&lt;br&gt;&lt;/td&gt;&lt;/tr&gt;&lt;/tbody&gt;&lt;/table&gt;" style="shape=partialRectangle;html=1;whiteSpace=wrap;connectable=0;fillColor=none;top=0;left=0;bottom=0;right=0;overflow=hidden;strokeColor=#457B9D;fontColor=#1D3557;" vertex="1" parent="6">
                    <mxGeometry width="40" height="30" as="geometry"/>
                </mxCell>
                <mxCell id="8" value="Value 2" style="shape=partialRectangle;html=1;whiteSpace=wrap;connectable=0;fillColor=none;top=0;left=0;bottom=0;right=0;align=left;spacingLeft=6;overflow=hidden;strokeColor=#457B9D;fontColor=#1D3557;" vertex="1" parent="6">
                    <mxGeometry x="40" width="140" height="30" as="geometry"/>
                </mxCell>
                <mxCell id="9" value="" style="shape=partialRectangle;html=1;whiteSpace=wrap;collapsible=0;dropTarget=0;pointerEvents=0;fillColor=none;top=0;left=0;bottom=0;right=0;points=[[0,0.5],[1,0.5]];portConstraint=eastwest;strokeColor=#457B9D;fontColor=#1D3557;" vertex="1" parent="2">
                    <mxGeometry y="90" width="180" height="30" as="geometry"/>
                </mxCell>
                <mxCell id="10" value="3" style="shape=partialRectangle;html=1;whiteSpace=wrap;connectable=0;fillColor=none;top=0;left=0;bottom=0;right=0;overflow=hidden;strokeColor=#457B9D;fontColor=#1D3557;" vertex="1" parent="9">
                    <mxGeometry width="40" height="30" as="geometry"/>
                </mxCell>
                <mxCell id="11" value="Value 3" style="shape=partialRectangle;html=1;whiteSpace=wrap;connectable=0;fillColor=none;top=0;left=0;bottom=0;right=0;align=left;spacingLeft=6;overflow=hidden;strokeColor=#457B9D;fontColor=#1D3557;" vertex="1" parent="9">
                    <mxGeometry x="40" width="140" height="30" as="geometry"/>
                </mxCell>
                <mxCell id="12" value="" style="shape=table;html=1;whiteSpace=wrap;startSize=0;container=1;collapsible=0;childLayout=tableLayout;fillColor=#A8DADC;strokeColor=#457B9D;fontColor=#1D3557;" vertex="1" parent="1">
                    <mxGeometry x="270" y="20" width="120" height="120" as="geometry"/>
                </mxCell>
                <mxCell id="13" value="" style="shape=partialRectangle;html=1;whiteSpace=wrap;collapsible=0;dropTarget=0;pointerEvents=0;fillColor=none;top=0;left=0;bottom=0;right=0;points=[[0,0.5],[1,0.5]];portConstraint=eastwest;strokeColor=#457B9D;fontColor=#1D3557;" vertex="1" parent="12">
                    <mxGeometry width="120" height="40" as="geometry"/>
                </mxCell>
                <mxCell id="14" value="" style="shape=partialRectangle;html=1;whiteSpace=wrap;connectable=0;fillColor=none;top=0;left=0;bottom=0;right=0;overflow=hidden;strokeColor=#457B9D;fontColor=#1D3557;" vertex="1" parent="13">
                    <mxGeometry width="40" height="40" as="geometry"/>
                </mxCell>
                <mxCell id="15" value="" style="shape=partialRectangle;html=1;whiteSpace=wrap;connectable=0;fillColor=none;top=0;left=0;bottom=0;right=0;overflow=hidden;strokeColor=#457B9D;fontColor=#1D3557;" vertex="1" parent="13">
                    <mxGeometry x="40" width="40" height="40" as="geometry"/>
                </mxCell>
                <mxCell id="16" value="" style="shape=partialRectangle;html=1;whiteSpace=wrap;connectable=0;fillColor=none;top=0;left=0;bottom=0;right=0;overflow=hidden;strokeColor=#457B9D;fontColor=#1D3557;" vertex="1" parent="13">
                    <mxGeometry x="80" width="40" height="40" as="geometry"/>
                </mxCell>
                <mxCell id="17" value="" style="shape=partialRectangle;html=1;whiteSpace=wrap;collapsible=0;dropTarget=0;pointerEvents=0;fillColor=none;top=0;left=0;bottom=0;right=0;points=[[0,0.5],[1,0.5]];portConstraint=eastwest;strokeColor=#457B9D;fontColor=#1D3557;" vertex="1" parent="12">
                    <mxGeometry y="40" width="120" height="40" as="geometry"/>
                </mxCell>
                <mxCell id="18" value="" style="shape=partialRectangle;html=1;whiteSpace=wrap;connectable=0;fillColor=none;top=0;left=0;bottom=0;right=0;overflow=hidden;strokeColor=#457B9D;fontColor=#1D3557;" vertex="1" parent="17">
                    <mxGeometry width="40" height="40" as="geometry"/>
                </mxCell>
                <mxCell id="19" value="" style="shape=partialRectangle;html=1;whiteSpace=wrap;connectable=0;fillColor=none;top=0;left=0;bottom=0;right=0;overflow=hidden;strokeColor=#457B9D;fontColor=#1D3557;" vertex="1" parent="17">
                    <mxGeometry x="40" width="40" height="40" as="geometry"/>
                </mxCell>
                <mxCell id="20" value="" style="shape=partialRectangle;html=1;whiteSpace=wrap;connectable=0;fillColor=none;top=0;left=0;bottom=0;right=0;overflow=hidden;strokeColor=#457B9D;fontColor=#1D3557;" vertex="1" parent="17">
                    <mxGeometry x="80" width="40" height="40" as="geometry"/>
                </mxCell>
                <mxCell id="21" value="" style="shape=partialRectangle;html=1;whiteSpace=wrap;collapsible=0;dropTarget=0;pointerEvents=0;fillColor=none;top=0;left=0;bottom=0;right=0;points=[[0,0.5],[1,0.5]];portConstraint=eastwest;strokeColor=#457B9D;fontColor=#1D3557;" vertex="1" parent="12">
                    <mxGeometry y="80" width="120" height="40" as="geometry"/>
                </mxCell>
                <mxCell id="22" value="" style="shape=partialRectangle;html=1;whiteSpace=wrap;connectable=0;fillColor=none;top=0;left=0;bottom=0;right=0;overflow=hidden;strokeColor=#457B9D;fontColor=#1D3557;" vertex="1" parent="21">
                    <mxGeometry width="40" height="40" as="geometry"/>
                </mxCell>
                <mxCell id="23" value="" style="shape=partialRectangle;html=1;whiteSpace=wrap;connectable=0;fillColor=none;top=0;left=0;bottom=0;right=0;overflow=hidden;strokeColor=#457B9D;fontColor=#1D3557;" vertex="1" parent="21">
                    <mxGeometry x="40" width="40" height="40" as="geometry"/>
                </mxCell>
                <mxCell id="24" value="" style="shape=partialRectangle;html=1;whiteSpace=wrap;connectable=0;fillColor=none;top=0;left=0;bottom=0;right=0;overflow=hidden;strokeColor=#457B9D;fontColor=#1D3557;" vertex="1" parent="21">
                    <mxGeometry x="80" width="40" height="40" as="geometry"/>
                </mxCell>
                <mxCell id="25" value="" style="shape=table;html=1;whiteSpace=wrap;startSize=0;container=1;collapsible=0;childLayout=tableLayout;fillColor=#A8DADC;strokeColor=#457B9D;fontColor=#1D3557;" vertex="1" parent="1">
                    <mxGeometry x="230" y="270" width="120" height="160" as="geometry"/>
                </mxCell>
                <mxCell id="26" value="" style="shape=partialRectangle;html=1;whiteSpace=wrap;collapsible=0;dropTarget=0;pointerEvents=0;fillColor=none;top=0;left=0;bottom=0;right=0;points=[[0,0.5],[1,0.5]];portConstraint=eastwest;strokeColor=#457B9D;fontColor=#1D3557;" vertex="1" parent="25">
                    <mxGeometry width="120" height="40" as="geometry"/>
                </mxCell>
                <mxCell id="27" value="457B9D" style="shape=partialRectangle;html=1;whiteSpace=wrap;connectable=0;overflow=hidden;fillColor=#A8DADC;top=0;left=0;bottom=0;right=0;strokeColor=#457B9D;fontColor=#1D3557;" vertex="1" parent="26">
                    <mxGeometry width="60" height="40" as="geometry"/>
                </mxCell>
                <mxCell id="28" value="&lt;span style=&quot;color: rgb(0 , 0 , 0) ; font-size: 26px ; font-weight: 600 ; text-align: left ; background-color: rgb(255 , 255 , 255)&quot;&gt;Draw.io Integration&lt;/span&gt;" style="shape=partialRectangle;html=1;whiteSpace=wrap;connectable=0;overflow=hidden;fillColor=none;top=0;left=0;bottom=0;right=0;strokeColor=#457B9D;fontColor=#1D3557;" vertex="1" parent="26">
                    <mxGeometry x="60" width="60" height="40" as="geometry"/>
                </mxCell>
                <mxCell id="29" value="" style="shape=partialRectangle;html=1;whiteSpace=wrap;collapsible=0;dropTarget=0;pointerEvents=0;fillColor=none;top=0;left=0;bottom=0;right=0;points=[[0,0.5],[1,0.5]];portConstraint=eastwest;strokeColor=#457B9D;fontColor=#1D3557;" vertex="1" parent="25">
                    <mxGeometry y="40" width="120" height="40" as="geometry"/>
                </mxCell>
                <mxCell id="30" value="cccccccccccccc" style="shape=partialRectangle;html=1;whiteSpace=wrap;connectable=0;overflow=hidden;fillColor=none;top=0;left=0;bottom=0;right=0;strokeColor=#457B9D;fontColor=#1D3557;" vertex="1" parent="29">
                    <mxGeometry width="60" height="40" as="geometry"/>
                </mxCell>
                <mxCell id="31" value="" style="shape=partialRectangle;html=1;whiteSpace=wrap;connectable=0;overflow=hidden;fillColor=none;top=0;left=0;bottom=0;right=0;strokeColor=#457B9D;fontColor=#1D3557;" vertex="1" parent="29">
                    <mxGeometry x="60" width="60" height="40" as="geometry"/>
                </mxCell>
                <mxCell id="32" value="" style="shape=partialRectangle;html=1;whiteSpace=wrap;collapsible=0;dropTarget=0;pointerEvents=0;fillColor=none;top=0;left=0;bottom=0;right=0;points=[[0,0.5],[1,0.5]];portConstraint=eastwest;strokeColor=#457B9D;fontColor=#1D3557;" vertex="1" parent="25">
                    <mxGeometry y="80" width="120" height="40" as="geometry"/>
                </mxCell>
                <mxCell id="33" value="" style="shape=partialRectangle;html=1;whiteSpace=wrap;connectable=0;overflow=hidden;fillColor=none;top=0;left=0;bottom=0;right=0;strokeColor=#457B9D;fontColor=#1D3557;" vertex="1" parent="32">
                    <mxGeometry width="60" height="40" as="geometry"/>
                </mxCell>
                <mxCell id="34" value="" style="shape=partialRectangle;html=1;whiteSpace=wrap;connectable=0;overflow=hidden;fillColor=none;top=0;left=0;bottom=0;right=0;strokeColor=#457B9D;fontColor=#1D3557;" vertex="1" parent="32">
                    <mxGeometry x="60" width="60" height="40" as="geometry"/>
                </mxCell>
                <mxCell id="35" value="" style="shape=partialRectangle;html=1;whiteSpace=wrap;collapsible=0;dropTarget=0;pointerEvents=0;fillColor=none;top=0;left=0;bottom=0;right=0;points=[[0,0.5],[1,0.5]];portConstraint=eastwest;strokeColor=#457B9D;fontColor=#1D3557;" vertex="1" parent="25">
                    <mxGeometry y="120" width="120" height="40" as="geometry"/>
                </mxCell>
                <mxCell id="36" value="" style="shape=partialRectangle;html=1;whiteSpace=wrap;connectable=0;overflow=hidden;fillColor=none;top=0;left=0;bottom=0;right=0;strokeColor=#457B9D;fontColor=#1D3557;" vertex="1" parent="35">
                    <mxGeometry width="60" height="40" as="geometry"/>
                </mxCell>
                <mxCell id="37" value="" style="shape=partialRectangle;html=1;whiteSpace=wrap;connectable=0;overflow=hidden;fillColor=none;top=0;left=0;bottom=0;right=0;strokeColor=#457B9D;fontColor=#1D3557;" vertex="1" parent="35">
                    <mxGeometry x="60" width="60" height="40" as="geometry"/>
                </mxCell>
                <mxCell id="38" value="Text" style="text;html=1;resizable=0;autosize=1;align=left;verticalAlign=middle;points=[];fillColor=none;strokeColor=none;rounded=0;startSize=0;fontColor=#1D3557;" vertex="1" parent="1">
                    <mxGeometry x="270" y="340" width="40" height="20" as="geometry"/>
                </mxCell>
                <mxCell id="39" style="edgeStyle=orthogonalEdgeStyle;curved=0;rounded=1;sketch=0;orthogonalLoop=1;jettySize=auto;html=1;entryX=0.994;entryY=0.8;entryDx=0;entryDy=0;entryPerimeter=0;strokeColor=#457B9D;fillColor=#A8DADC;fontColor=#1D3557;" edge="1" parent="1" source="17" target="3">
                    <mxGeometry relative="1" as="geometry"/>
                </mxCell>
                <mxCell id="40" value="" style="rounded=1;whiteSpace=wrap;html=1;sketch=0;strokeColor=#457B9D;strokeWidth=3;fillColor=#A8DADC;gradientColor=none;fontColor=#1D3557;align=left;" vertex="1" parent="1">
                    <mxGeometry x="40" y="190" width="120" height="60" as="geometry"/>
                </mxCell>
                <mxCell id="43" style="edgeStyle=orthogonalEdgeStyle;curved=0;rounded=1;sketch=0;orthogonalLoop=1;jettySize=auto;html=1;exitX=1;exitY=0.75;exitDx=0;exitDy=0;entryX=0.817;entryY=0.025;entryDx=0;entryDy=0;entryPerimeter=0;strokeColor=#457B9D;fillColor=#A8DADC;fontColor=#1D3557;" edge="1" parent="1" source="42" target="26">
                    <mxGeometry relative="1" as="geometry"/>
                </mxCell>
                <mxCell id="42" value="&lt;span style=&quot;font-size: 26px ; font-style: normal ; font-weight: 600 ; letter-spacing: normal ; text-indent: 0px ; text-transform: none ; word-spacing: 0px ; display: inline ; float: none ; background-color: rgb(255 , 255 , 255)&quot;&gt;Draw.io Integration&lt;/span&gt;" style="text;whiteSpace=wrap;html=1;verticalAlign=top;perimeterSpacing=1;strokeWidth=2;labelBorderColor=none;fontColor=#000000;" vertex="1" parent="1">
                    <mxGeometry x="240" y="190" width="260" height="30" as="geometry"/>
                </mxCell>
                <mxCell id="45" value="&lt;span style=&quot;font-size: 26px ; font-style: normal ; font-weight: 600 ; letter-spacing: normal ; text-indent: 0px ; text-transform: none ; word-spacing: 0px ; display: inline ; float: none ; background-color: rgb(255 , 255 , 255)&quot;&gt;Draw.io Integration&lt;/span&gt;" style="text;whiteSpace=wrap;html=1;verticalAlign=top;perimeterSpacing=1;strokeWidth=2;labelBorderColor=none;fontColor=#000000;" vertex="1" parent="1">
                    <mxGeometry x="250" y="200" width="260" height="30" as="geometry"/>
                </mxCell>
            </root>
        </mxGraphModel>
    </diagram>
</mxfile>